<svg width="31" height="31" viewBox="0 0 31 31" fill="none" xmlns="http://www.w3.org/2000/svg">
<circle cx="15.949" cy="15.1338" r="15" fill="#E9588F"/>
<g clip-path="url(#clip0)">
<path d="M24.4489 9.55315C23.8232 9.84671 23.1519 10.0458 22.4465 10.1347C23.1667 9.67801 23.7181 8.95365 23.9794 8.09318C23.3038 8.5161 22.558 8.82318 21.7634 8.98965C21.1271 8.27092 20.222 7.82324 19.2181 7.82324C17.2922 7.82324 15.7306 9.47668 15.7306 11.5148C15.7306 11.8039 15.7614 12.0862 15.8209 12.3562C12.923 12.202 10.3533 10.7319 8.63342 8.4981C8.33278 9.04251 8.16175 9.67686 8.16175 10.354C8.16175 11.6352 8.77789 12.7656 9.71272 13.4269C9.1412 13.4067 8.60367 13.2402 8.13309 12.9635V13.0096C8.13309 14.798 9.33561 16.2906 10.9301 16.6303C10.638 16.7136 10.3299 16.7597 10.0112 16.7597C9.78603 16.7597 9.56825 16.7361 9.35472 16.6911C9.79875 18.1589 11.0863 19.2263 12.6118 19.2556C11.4188 20.2454 9.91456 20.8337 8.28075 20.8337C7.99925 20.8337 7.72197 20.8157 7.44897 20.7831C8.9925 21.8325 10.825 22.4444 12.7945 22.4444C19.2097 22.4444 22.7164 16.8182 22.7164 11.9389L22.7047 11.4608C23.3898 10.9434 23.9826 10.2933 24.4489 9.55315Z" fill="white"/>
</g>
<defs>
<clipPath id="clip0">
<rect width="17" height="14.6211" fill="white" transform="translate(7.44897 7.82324)"/>
</clipPath>
</defs>
</svg>
