<svg width="31" height="31" viewBox="0 0 31 31" fill="none" xmlns="http://www.w3.org/2000/svg">
<path d="M15.0938 30.4863C23.4298 30.4863 30.1875 23.7286 30.1875 15.3926C30.1875 7.05653 23.4298 0.298828 15.0938 0.298828C6.7577 0.298828 0 7.05653 0 15.3926C0 23.7286 6.7577 30.4863 15.0938 30.4863Z" fill="#E9588F"/>
<g clip-path="url(#clip0)">
<path fill-rule="evenodd" clip-rule="evenodd" d="M14.5235 22.0122H15.7081C15.7081 22.0122 16.066 21.9729 16.2487 21.7759C16.4168 21.5951 16.4114 21.2556 16.4114 21.2556C16.4114 21.2556 16.3883 19.666 17.1261 19.4319C17.8533 19.2013 18.7873 20.9682 19.7771 21.6476C20.5257 22.1618 21.0944 22.049 21.0944 22.049L23.7412 22.0122C23.7412 22.0122 25.1258 21.9269 24.4693 20.8383C24.4155 20.7492 24.0869 20.033 22.5014 18.5612C20.8418 17.0208 21.064 17.27 23.0632 14.6055C24.2807 12.9828 24.7674 11.9921 24.6154 11.5678C24.4703 11.1637 23.5749 11.2705 23.5749 11.2705L20.5948 11.289C20.5948 11.289 20.3739 11.2589 20.21 11.3568C20.05 11.4529 19.9469 11.6768 19.9469 11.6768C19.9469 11.6768 19.4752 12.9325 18.8462 14.0004C17.5192 16.2537 16.9886 16.3727 16.7717 16.2328C16.2672 15.9067 16.3932 14.9227 16.3932 14.2237C16.3932 12.04 16.7244 11.1295 15.7482 10.8938C15.4243 10.8155 15.1859 10.7638 14.3574 10.7555C13.2941 10.7445 12.3941 10.7587 11.8845 11.0084C11.5455 11.1744 11.284 11.5444 11.4432 11.5656C11.6402 11.592 12.0863 11.6859 12.3228 12.008C12.6282 12.4234 12.6174 13.3565 12.6174 13.3565C12.6174 13.3565 12.7929 15.9271 12.2077 16.2465C11.8059 16.4655 11.2549 16.0183 10.0718 13.974C9.46566 12.9268 9.00798 11.7693 9.00798 11.7693C9.00798 11.7693 8.91973 11.553 8.76233 11.4373C8.5713 11.2971 8.30439 11.2525 8.30439 11.2525L5.47253 11.271C5.47253 11.271 5.04742 11.2829 4.89136 11.4677C4.75253 11.6321 4.88033 11.9722 4.88033 11.9722C4.88033 11.9722 7.09739 17.1591 9.60772 19.7731C11.9095 22.1696 14.5235 22.0122 14.5235 22.0122Z" fill="white"/>
</g>
<defs>
<clipPath id="clip0">
<rect width="19.8193" height="11.3066" fill="white" transform="translate(4.82666 10.7529)"/>
</clipPath>
</defs>
</svg>
