<svg width="31" height="31" viewBox="0 0 31 31" fill="none" xmlns="http://www.w3.org/2000/svg">
<path d="M15.1638 30.4863C23.4999 30.4863 30.2576 23.7286 30.2576 15.3926C30.2576 7.05653 23.4999 0.298828 15.1638 0.298828C6.82777 0.298828 0.0700684 7.05653 0.0700684 15.3926C0.0700684 23.7286 6.82777 30.4863 15.1638 30.4863Z" fill="#E9588F"/>
<g clip-path="url(#clip0)">
<path d="M14.3441 19.071C13.053 18.9255 11.889 18.5818 10.8924 17.7393C10.7687 17.6345 10.641 17.5335 10.5282 17.4164C10.092 16.9636 10.048 16.445 10.3932 15.9105C10.6885 15.4532 11.1842 15.3308 11.6994 15.5934C11.7992 15.6443 11.8942 15.7079 11.9853 15.7761C13.8426 17.1555 16.3942 17.1936 18.2585 15.8381C18.4432 15.6851 18.6406 15.5603 18.8695 15.4965C19.3144 15.3731 19.7293 15.5497 19.9681 15.9705C20.2409 16.451 20.2374 16.92 19.9013 17.2931C19.3857 17.8651 18.7657 18.2789 18.0768 18.5677C17.4253 18.8406 16.7118 18.9781 16.0056 19.0693C16.1121 19.1947 16.1624 19.2563 16.229 19.3287C17.1879 20.3701 18.1511 21.4071 19.1069 22.4517C19.4325 22.8076 19.5005 23.2489 19.3212 23.6629C19.1252 24.1153 18.6863 24.413 18.2561 24.3811C17.9834 24.3608 17.7708 24.2141 17.5819 24.0084C16.8583 23.2214 16.121 22.4488 15.412 21.6469C15.2057 21.4137 15.1064 21.4578 14.9243 21.6603C14.1963 22.4703 13.4565 23.2679 12.7122 24.061C12.378 24.4171 11.9804 24.4812 11.5928 24.2778C11.1808 24.062 10.9187 23.6075 10.9389 23.1507C10.9529 22.8417 11.0935 22.6057 11.2897 22.394C12.2387 21.3698 13.1851 20.3429 14.1318 19.317C14.1944 19.2488 14.2528 19.1764 14.3441 19.071Z" fill="white"/>
<path d="M15.1305 15.5034C12.8274 15.4949 10.9388 13.4312 10.9522 10.9379C10.9655 8.41707 12.8553 6.38562 15.1811 6.3926C17.5117 6.39938 19.3823 8.46005 19.3706 11.0071C19.3587 13.4953 17.4571 15.5121 15.1305 15.5034ZM17.2237 10.9439C17.2197 9.70596 16.3075 8.72039 15.1644 8.71926C14.0117 8.71794 13.0913 9.72142 13.1002 10.9707C13.1087 12.204 14.0288 13.1826 15.175 13.178C16.3178 13.1737 17.2276 12.1817 17.2237 10.9439Z" fill="white"/>
</g>
<defs>
<clipPath id="clip0">
<rect width="10" height="18" fill="white" transform="translate(10.1638 6.39258)"/>
</clipPath>
</defs>
</svg>
