<svg width="31" height="31" viewBox="0 0 31 31" fill="none" xmlns="http://www.w3.org/2000/svg">
<path d="M15.9062 30.3654C24.2423 30.3654 31 23.6348 31 15.3321C31 7.02947 24.2423 0.298828 15.9062 0.298828C7.5702 0.298828 0.8125 7.02947 0.8125 15.3321C0.8125 23.6348 7.5702 30.3654 15.9062 30.3654Z" fill="#E9588F"/>
<g clip-path="url(#clip0)">
<path d="M20.9561 9.24414H10.8564C8.87486 9.24414 7.26855 10.8441 7.26855 12.8176V17.8462C7.26855 19.8198 8.87492 21.4197 10.8564 21.4197H20.9561C22.9376 21.4197 24.5439 19.8198 24.5439 17.8462V12.8176C24.5439 10.8441 22.9376 9.24414 20.9561 9.24414ZM18.5296 15.5766L13.8057 17.8205C13.6798 17.8804 13.5343 17.789 13.5343 17.6502V13.0219C13.5343 12.881 13.6836 12.7897 13.8097 12.8534L18.5336 15.2376C18.6742 15.3085 18.6717 15.5092 18.5296 15.5766Z" fill="white"/>
</g>
<defs>
<clipPath id="clip0">
<rect width="17.2754" height="12.1756" fill="white" transform="translate(7.26855 9.24414)"/>
</clipPath>
</defs>
</svg>
