<svg width="31" height="31" viewBox="0 0 31 31" fill="none" xmlns="http://www.w3.org/2000/svg">
<path d="M15.6748 30.3654C24.0109 30.3654 30.7686 23.6348 30.7686 15.3321C30.7686 7.02947 24.0109 0.298828 15.6748 0.298828C7.33876 0.298828 0.581055 7.02947 0.581055 15.3321C0.581055 23.6348 7.33876 30.3654 15.6748 30.3654Z" fill="#E9588F"/>
<g clip-path="url(#clip0)">
<path d="M18.8112 7.83203H12.5382C10.4079 7.83203 8.6748 9.68903 8.6748 11.9715V18.6925C8.6748 20.975 10.4079 22.8319 12.5382 22.8319H18.8112C20.9416 22.8319 22.6747 20.9749 22.6747 18.6925V11.9715C22.6748 9.68903 20.9416 7.83203 18.8112 7.83203ZM21.4327 18.6925C21.4327 20.2412 20.2567 21.5011 18.8112 21.5011H12.5382C11.0928 21.5012 9.91695 20.2412 9.91695 18.6925V11.9715C9.91695 10.4229 11.0928 9.1629 12.5382 9.1629H18.8112C20.2566 9.1629 21.4326 10.4229 21.4326 11.9715V18.6925H21.4327Z" fill="white"/>
<path d="M15.6748 11.4668C13.6856 11.4668 12.0674 13.2006 12.0674 15.3319C12.0674 17.4631 13.6856 19.1968 15.6748 19.1968C17.664 19.1968 19.2822 17.4631 19.2822 15.3319C19.2822 13.2006 17.664 11.4668 15.6748 11.4668ZM15.6748 17.8659C14.3706 17.8659 13.3095 16.7291 13.3095 15.3318C13.3095 13.9344 14.3706 12.7976 15.6748 12.7976C16.9791 12.7976 18.0401 13.9344 18.0401 15.3318C18.0401 16.7291 16.979 17.8659 15.6748 17.8659Z" fill="white"/>
<path d="M19.4336 10.3389C19.1943 10.3389 18.9592 10.4427 18.7902 10.6246C18.6203 10.8056 18.5227 11.0575 18.5227 11.3148C18.5227 11.5713 18.6204 11.8232 18.7902 12.0051C18.9591 12.1861 19.1943 12.2908 19.4336 12.2908C19.6738 12.2908 19.9081 12.1861 20.0779 12.0051C20.2476 11.8232 20.3445 11.5712 20.3445 11.3148C20.3445 11.0575 20.2476 10.8056 20.0779 10.6246C19.9089 10.4427 19.6738 10.3389 19.4336 10.3389Z" fill="white"/>
</g>
<defs>
<clipPath id="clip0">
<rect width="14" height="15" fill="white" transform="translate(8.6748 7.83203)"/>
</clipPath>
</defs>
</svg>
