<svg width="30" height="31" viewBox="0 0 30 31" fill="none" xmlns="http://www.w3.org/2000/svg">
<circle cx="15" cy="15.1338" r="15" fill="#E9588F"/>
<g clip-path="url(#clip0)">
<path d="M20.2575 24.5218L16.5233 23.0771L9.5647 29.118C9.5647 29.118 10.2997 29.4224 11.2674 29.6912C12.235 29.96 13.4818 30.0571 13.4818 30.0571L20.2575 24.5218Z" fill="#FFB2B2"/>
<path d="M16.0035 0.167969L9.71889 5.17227L13.5883 6.68049L20.1082 1.028C20.1082 1.028 19.7914 0.909514 19.3445 0.7711C18.9326 0.643506 18.4071 0.499092 17.9875 0.412296C17.1125 0.231344 16.0035 0.167969 16.0035 0.167969Z" fill="#FFB2B2"/>
<path d="M20.2813 9.28934L9.71851 5.17285V8.69379L20.2813 12.7972V9.28934Z" fill="white"/>
<path d="M20.2757 12.795L16.5218 11.3369L9.71704 16.909L13.5308 18.4067L20.2757 12.795Z" fill="#FFB2B2"/>
<path d="M20.2727 21.0461L9.71606 16.9102V20.4462L20.2727 24.525V21.0461Z" fill="white"/>
</g>
<defs>
<clipPath id="clip0">
<rect width="10.7167" height="29.8892" fill="white" transform="translate(9.5647 0.167969)"/>
</clipPath>
</defs>
</svg>
