<svg width="31" height="31" viewBox="0 0 31 31" fill="none" xmlns="http://www.w3.org/2000/svg">
<circle cx="15.1719" cy="15.1338" r="15" fill="#E9588F"/>
<g clip-path="url(#clip0)">
<path d="M24.0901 15.9009V21.7557H20.6959V16.293C20.6959 14.9207 20.2049 13.9842 18.9763 13.9842C18.0384 13.9842 17.4803 14.6154 17.2347 15.2259C17.1452 15.4441 17.1221 15.7479 17.1221 16.0535V21.7557H13.7267C13.7267 21.7557 13.7725 12.5037 13.7267 11.5451H17.1218V12.9924C17.1149 13.0032 17.106 13.0149 17.0995 13.0254H17.1218V12.9924C17.5729 12.2977 18.3785 11.3052 20.1816 11.3052C22.4155 11.3052 24.0901 12.7646 24.0901 15.9009ZM10.175 6.62305C9.01342 6.62305 8.25366 7.38494 8.25366 8.38686C8.25366 9.36695 8.99144 10.152 10.1299 10.152H10.1526C11.3367 10.152 12.073 9.36709 12.073 8.38686C12.0507 7.38494 11.3367 6.62305 10.175 6.62305ZM8.45532 21.7557H11.8494V11.5451H8.45532V21.7557Z" fill="white"/>
</g>
<defs>
<clipPath id="clip0">
<rect width="16" height="16" fill="white" transform="translate(8.17188 6.13379)"/>
</clipPath>
</defs>
</svg>
