<svg width="31" height="31" viewBox="0 0 31 31" fill="none" xmlns="http://www.w3.org/2000/svg">
<path d="M15.0938 30.4863C23.4298 30.4863 30.1875 23.7286 30.1875 15.3926C30.1875 7.05653 23.4298 0.298828 15.0938 0.298828C6.7577 0.298828 0 7.05653 0 15.3926C0 23.7286 6.7577 30.4863 15.0938 30.4863Z" fill="#E9588F"/>
<g clip-path="url(#clip0)">
<path d="M18.8884 15.9833H16.1951V25.8503H12.1146V15.9833H10.1738V12.5157H12.1146V10.2717C12.1146 8.66705 12.8768 6.1543 16.2315 6.1543L19.2541 6.16694V9.53289H17.061C16.7012 9.53289 16.1954 9.71262 16.1954 10.4781V12.5189H19.2449L18.8884 15.9833Z" fill="white"/>
</g>
<defs>
<clipPath id="clip0">
<rect width="9.08025" height="19.696" fill="white" transform="translate(10.1738 6.1543)"/>
</clipPath>
</defs>
</svg>
